<?xml version="1.0" standalone="no"?>
<!DOCTYPE svg PUBLIC "-//W3C//DTD SVG 20010904//EN"
 "http://www.w3.org/TR/2001/REC-SVG-20010904/DTD/svg10.dtd">
<svg version="1.0" xmlns="http://www.w3.org/2000/svg"
 width="346.000000pt" height="346.000000pt" viewBox="0 0 346.000000 346.000000"
 preserveAspectRatio="xMidYMid meet">
<metadata>
Created by potrace 1.14, written by Peter Selinger 2001-2017
</metadata>
<g transform="translate(0.000000,346.000000) scale(0.100000,-0.100000)"
fill="#000000" stroke="none">
<path d="M3383 2906 c-66 -21 -128 -62 -192 -127 -49 -49 -66 -60 -102 -65
-24 -4 -57 -13 -74 -21 -29 -15 -65 -47 -65 -57 0 -3 30 -2 66 1 65 6 66 6 55
-15 -6 -11 -11 -22 -11 -24 0 -2 27 -27 60 -57 51 -45 63 -51 76 -40 23 19 31
-1 27 -62 -3 -63 12 -62 45 1 14 29 22 62 22 97 0 33 5 55 13 60 42 25 125
166 142 243 19 79 10 88 -62 66z"/>
<path d="M1585 2749 c-118 -16 -145 -22 -227 -49 -400 -134 -684 -470 -751
-890 -14 -91 -15 -266 -1 -280 5 -5 23 -11 39 -14 17 -3 41 -8 55 -11 95 -20
362 8 540 56 41 12 86 23 99 25 54 11 378 125 476 169 17 7 77 34 135 60 195
86 485 244 662 360 l47 31 -26 45 c-15 24 -29 46 -32 49 -4 3 -18 22 -34 42
-15 20 -53 62 -85 93 -172 171 -372 269 -630 311 -54 9 -213 11 -267 3z"/>
<path d="M2919 2357 c-433 -369 -1158 -727 -1739 -861 -58 -13 -127 -27 -155
-31 -27 -3 -66 -9 -85 -12 -19 -3 -82 -6 -141 -6 -162 0 -261 37 -297 110 -24
48 -21 104 7 167 12 27 20 51 18 53 -6 5 -100 -99 -144 -158 -63 -85 -80 -123
-98 -218 -7 -39 29 -107 72 -135 68 -44 152 -59 293 -52 133 6 131 6 290 37
609 121 1478 564 1895 966 89 85 208 231 183 222 -2 0 -46 -37 -99 -82z"/>
<path d="M2850 2156 c-92 -87 -305 -242 -490 -357 -629 -390 -1403 -665 -1839
-653 -256 8 -359 120 -276 302 13 28 22 52 19 52 -8 0 -127 -128 -138 -149 -5
-9 -15 -22 -22 -28 -24 -24 -72 -118 -87 -170 -49 -165 72 -258 333 -256 145
1 291 24 493 77 128 34 332 97 372 116 11 6 52 21 90 35 39 14 79 30 90 35 11
5 55 25 98 44 44 20 81 36 83 36 14 0 407 203 432 222 6 6 12 8 12 5 0 -9
-214 -158 -350 -244 -120 -76 -186 -115 -295 -175 -65 -36 -367 -185 -403
-199 l-27 -11 40 -35 c112 -98 280 -186 440 -229 83 -22 125 -27 250 -29 99
-2 176 1 225 11 434 81 776 403 879 826 50 208 44 387 -22 618 -1 4 18 31 43
61 57 68 102 130 98 134 -2 2 -24 -15 -48 -39z"/>
</g>
</svg>
